HIERARCHY
ROOT Hips
{
	OFFSET 0.000000 100.481300 0.000000
	CHANNELS 6 Xposition Yposition Zposition Xrotation Yrotation Zrotation
	JOINT Spine
	{
		OFFSET -0.279200 12.230698 -2.892100
		CHANNELS 3 Xrotation Yrotation Zrotation
		JOINT Spine1
		{
			OFFSET -0.325700 14.269203 -3.374200
			CHANNELS 3 Xrotation Yrotation Zrotation
			JOINT Spine2
			{
				OFFSET -0.372300 16.307602 -0.352600
				CHANNELS 3 Xrotation Yrotation Zrotation
				JOINT Neck
				{
					OFFSET -0.418800 17.814194 8.416900
					CHANNELS 3 Xrotation Yrotation Zrotation
					JOINT Head
					{
						OFFSET 0.000000 7.031097 3.806800
						CHANNELS 3 Xrotation Yrotation Zrotation
						JOINT HeadTop_End
						{
							OFFSET 0.000000 24.646606 12.978600
							CHANNELS 3 Xrotation Yrotation Zrotation
							End Site
							{
								OFFSET 0.000000 27.854965 0.000000
							}
						}
					}
				}
				JOINT LeftShoulder
				{
					OFFSET 16.952999 14.495407 -7.737500
					CHANNELS 3 Xrotation Yrotation Zrotation
					JOINT LeftArm
					{
						OFFSET 9.308998 -2.777710 0.208600
						CHANNELS 3 Xrotation Yrotation Zrotation
						JOINT LeftForeArm
						{
							OFFSET 29.972298 0.000000 0.000000
							CHANNELS 3 Xrotation Yrotation Zrotation
							JOINT LeftHand
							{
								OFFSET 26.026505 0.000000 0.000000
								CHANNELS 3 Xrotation Yrotation Zrotation
								JOINT LeftHandThumb1
								{
									OFFSET 12.240501 -7.147949 9.207150
									CHANNELS 3 Xrotation Yrotation Zrotation
									JOINT LeftHandThumb2
									{
										OFFSET 4.138618 -2.389435 2.389433
										CHANNELS 3 Xrotation Yrotation Zrotation
										JOINT LeftHandThumb3
										{
											OFFSET 2.726913 -1.574387 1.574386
											CHANNELS 3 Xrotation Yrotation Zrotation
											JOINT LeftHandThumb4
											{
												OFFSET 3.941010 -2.275345 2.275342
												CHANNELS 3 Xrotation Yrotation Zrotation
												End Site
												{
													OFFSET -0.005798 5.087799 0.009903
												}
											}
										}
									}
								}
								JOINT LeftHandIndex1
								{
									OFFSET 24.424698 -1.985611 5.953459
									CHANNELS 3 Xrotation Yrotation Zrotation
									JOINT LeftHandIndex2
									{
										OFFSET 6.426697 0.000000 0.000000
										CHANNELS 3 Xrotation Yrotation Zrotation
										JOINT LeftHandIndex3
										{
											OFFSET 5.337898 0.000000 0.000000
											CHANNELS 3 Xrotation Yrotation Zrotation
											JOINT LeftHandIndex4
											{
												OFFSET 4.409401 0.000000 0.000000
												CHANNELS 3 Xrotation Yrotation Zrotation
												End Site
												{
													OFFSET 0.000000 4.409363 0.014373
												}
											}
										}
									}
								}
								JOINT LeftHandMiddle1
								{
									OFFSET 23.810104 0.000000 0.000000
									CHANNELS 3 Xrotation Yrotation Zrotation
									JOINT LeftHandMiddle2
									{
										OFFSET 7.176498 0.000000 0.000000
										CHANNELS 3 Xrotation Yrotation Zrotation
										JOINT LeftHandMiddle3
										{
											OFFSET 6.774902 0.000000 0.000000
											CHANNELS 3 Xrotation Yrotation Zrotation
											JOINT LeftHandMiddle4
											{
												OFFSET 5.403328 0.000000 0.000000
												CHANNELS 3 Xrotation Yrotation Zrotation
												End Site
												{
													OFFSET -0.027702 5.403244 0.017414
												}
											}
										}
									}
								}
								JOINT LeftHandRing1
								{
									OFFSET 22.908401 -0.839279 -6.020567
									CHANNELS 3 Xrotation Yrotation Zrotation
									JOINT LeftHandRing2
									{
										OFFSET 6.337502 0.000000 0.000000
										CHANNELS 3 Xrotation Yrotation Zrotation
										JOINT LeftHandRing3
										{
											OFFSET 5.779297 0.000000 0.000000
											CHANNELS 3 Xrotation Yrotation Zrotation
											JOINT LeftHandRing4
											{
												OFFSET 4.965698 0.000000 0.000000
												CHANNELS 3 Xrotation Yrotation Zrotation
												End Site
												{
													OFFSET 0.000000 4.965668 0.016186
												}
											}
										}
									}
								}
								JOINT LeftHandPinky1
								{
									OFFSET 20.037003 -1.530319 -10.950146
									CHANNELS 3 Xrotation Yrotation Zrotation
									JOINT LeftHandPinky2
									{
										OFFSET 5.254700 0.000000 0.000000
										CHANNELS 3 Xrotation Yrotation Zrotation
										JOINT LeftHandPinky3
										{
											OFFSET 4.810204 0.000000 0.000000
											CHANNELS 3 Xrotation Yrotation Zrotation
											JOINT LeftHandPinky4
											{
												OFFSET 3.647202 0.000000 0.000000
												CHANNELS 3 Xrotation Yrotation Zrotation
												End Site
												{
													OFFSET 0.000000 3.647186 0.011889
												}
											}
										}
									}
								}
							}
						}
					}
				}
				JOINT RightShoulder
				{
					OFFSET -15.141001 14.495407 -7.737500
					CHANNELS 3 Xrotation Yrotation Zrotation
					JOINT RightArm
					{
						OFFSET -9.308998 -2.777710 0.208500
						CHANNELS 3 Xrotation Yrotation Zrotation
						JOINT RightForeArm
						{
							OFFSET -29.972300 0.000000 0.000000
							CHANNELS 3 Xrotation Yrotation Zrotation
							JOINT RightHand
							{
								OFFSET -26.026505 0.000000 0.000000
								CHANNELS 3 Xrotation Yrotation Zrotation
								JOINT RightHandThumb1
								{
									OFFSET -12.240601 -7.148026 9.207092
									CHANNELS 3 Xrotation Yrotation Zrotation
									JOINT RightHandThumb2
									{
										OFFSET -4.138618 -2.389435 2.389433
										CHANNELS 3 Xrotation Yrotation Zrotation
										JOINT RightHandThumb3
										{
											OFFSET -2.726974 -1.574417 1.574421
											CHANNELS 3 Xrotation Yrotation Zrotation
											JOINT RightHandThumb4
											{
												OFFSET -3.941010 -2.275345 2.275343
												CHANNELS 3 Xrotation Yrotation Zrotation
												End Site
												{
													OFFSET 0.005814 5.087799 0.009927
												}
											}
										}
									}
								}
								JOINT RightHandIndex1
								{
									OFFSET -24.424698 -1.985657 5.953444
									CHANNELS 3 Xrotation Yrotation Zrotation
									JOINT RightHandIndex2
									{
										OFFSET -6.426697 0.000000 0.000000
										CHANNELS 3 Xrotation Yrotation Zrotation
										JOINT RightHandIndex3
										{
											OFFSET -5.337898 0.000000 0.000000
											CHANNELS 3 Xrotation Yrotation Zrotation
											JOINT RightHandIndex4
											{
												OFFSET -4.409401 0.000000 0.000000
												CHANNELS 3 Xrotation Yrotation Zrotation
												End Site
												{
													OFFSET 0.000000 4.409363 0.014408
												}
											}
										}
									}
								}
								JOINT RightHandMiddle1
								{
									OFFSET -23.810097 0.000000 0.000000
									CHANNELS 3 Xrotation Yrotation Zrotation
									JOINT RightHandMiddle2
									{
										OFFSET -7.176498 0.000000 0.000000
										CHANNELS 3 Xrotation Yrotation Zrotation
										JOINT RightHandMiddle3
										{
											OFFSET -6.774902 0.000000 0.000000
											CHANNELS 3 Xrotation Yrotation Zrotation
											JOINT RightHandMiddle4
											{
												OFFSET -5.403328 0.000000 0.000000
												CHANNELS 3 Xrotation Yrotation Zrotation
												End Site
												{
													OFFSET 0.027702 5.403244 0.017457
												}
											}
										}
									}
								}
								JOINT RightHandRing1
								{
									OFFSET -22.908302 -0.839325 -6.020576
									CHANNELS 3 Xrotation Yrotation Zrotation
									JOINT RightHandRing2
									{
										OFFSET -6.337502 0.000000 0.000000
										CHANNELS 3 Xrotation Yrotation Zrotation
										JOINT RightHandRing3
										{
											OFFSET -5.779297 0.000000 0.000000
											CHANNELS 3 Xrotation Yrotation Zrotation
											JOINT RightHandRing4
											{
												OFFSET -4.965698 0.000000 0.000000
												CHANNELS 3 Xrotation Yrotation Zrotation
												End Site
												{
													OFFSET 0.000000 4.965668 0.016226
												}
											}
										}
									}
								}
								JOINT RightHandPinky1
								{
									OFFSET -20.037003 -1.530334 -10.950259
									CHANNELS 3 Xrotation Yrotation Zrotation
									JOINT RightHandPinky2
									{
										OFFSET -5.254700 0.000000 0.000000
										CHANNELS 3 Xrotation Yrotation Zrotation
										JOINT RightHandPinky3
										{
											OFFSET -4.810204 0.000000 0.000000
											CHANNELS 3 Xrotation Yrotation Zrotation
											JOINT RightHandPinky4
											{
												OFFSET -3.647202 0.000000 0.000000
												CHANNELS 3 Xrotation Yrotation Zrotation
												End Site
												{
													OFFSET 0.000000 3.647186 0.011917
												}
											}
										}
									}
								}
							}
						}
					}
				}
			}
		}
	}
	JOINT LeftUpLeg
	{
		OFFSET 15.427100 -6.655098 0.678600
		CHANNELS 3 Xrotation Yrotation Zrotation
		JOINT LeftLeg
		{
			OFFSET 4.081073 -39.591068 13.024000
			CHANNELS 3 Xrotation Yrotation Zrotation
			JOINT LeftFoot
			{
				OFFSET -4.081074 -37.707932 -15.979700
				CHANNELS 3 Xrotation Yrotation Zrotation
				JOINT LeftToeBase
				{
					OFFSET 5.346399 -15.068900 20.645000
					CHANNELS 3 Xrotation Yrotation Zrotation
					JOINT LeftToe_End
					{
						OFFSET 2.754700 0.931300 11.300900
						CHANNELS 3 Xrotation Yrotation Zrotation
						End Site
						{
							OFFSET 0.000000 11.669021 0.000000
						}
					}
				}
			}
		}
	}
	JOINT RightUpLeg
	{
		OFFSET -15.569500 -6.655098 0.678600
		CHANNELS 3 Xrotation Yrotation Zrotation
		JOINT RightLeg
		{
			OFFSET -4.081825 -39.591045 13.023800
			CHANNELS 3 Xrotation Yrotation Zrotation
			JOINT RightFoot
			{
				OFFSET 4.081824 -37.707954 -15.979600
				CHANNELS 3 Xrotation Yrotation Zrotation
				JOINT RightToeBase
				{
					OFFSET -5.346400 -15.068900 20.645000
					CHANNELS 3 Xrotation Yrotation Zrotation
					JOINT RightToe_End
					{
						OFFSET -2.754700 0.931300 11.300900
						CHANNELS 3 Xrotation Yrotation Zrotation
						End Site
						{
							OFFSET 0.000000 11.669021 0.000000
						}
					}
				}
			}
		}
	}
}
MOTION
Frames: 4
Frame Time: 0.033333
1.377109 93.977341 55.452423 -4.888450 -7.574953 -2.216490 1.740863 -0.520942 1.196452 3.473410 -0.991697 0.984512 3.473410 -0.991698 0.984512 18.974824 -1.318346 0.524088 9.773114 12.549924 2.222634 0.000000 -0.000000 -0.000000 2.688771 -21.902484 3.050762 4.108232 -16.301947 -17.687429 81.307002 -55.110034 79.556616 -7.691597 -10.541127 -1.891571 18.906602 -10.775061 10.593003 -11.046222 9.733293 -5.539201 -11.272842 -17.966396 -7.048692 -0.000002 -0.000000 0.000002 0.515992 1.815107 24.843997 1.555816 4.500225 -45.145761 0.911641 2.806731 -32.055352 0.000003 0.000002 -0.000000 0.461537 6.084231 11.150857 4.177280 5.938657 -78.844979 2.734323 4.981962 -56.726733 0.000001 0.000003 0.000000 2.826711 19.134389 -14.799546 3.269832 4.788547 -63.914889 1.538275 3.368739 -42.296486 0.000001 0.000002 0.000002 2.466102 18.958701 15.754116 0.155282 2.215080 -25.658656 0.203413 1.812071 -10.735933 -0.000000 0.000003 -0.000000 0.857857 15.419762 7.126735 5.472013 51.660248 10.094938 52.268883 48.007818 -47.154608 -6.257422 7.046120 -2.777449 18.905079 10.772247 -10.597009 -11.046325 -9.733289 5.539049 -11.572898 18.831088 7.838318 -0.000000 -0.000001 -0.000001 0.212430 -3.068864 -9.799664 3.484411 -5.711149 70.426005 1.032233 -3.332506 47.589903 -0.000000 -0.000002 -0.000000 0.687459 -8.546390 14.547135 2.030270 -4.989544 52.805538 -2.255948 0.411506 38.950974 0.000001 -0.000000 -0.000001 2.536247 -17.957635 4.478978 0.738157 -2.426019 22.712811 -1.196254 5.528692 10.366563 0.000001 0.000000 0.000001 2.464039 -18.957999 -15.761676 0.155364 -2.215425 25.658552 -0.960525 4.410365 2.836418 -0.000000 0.000002 0.000001 -10.325656 6.980724 4.257466 24.373390 11.034111 0.553921 -8.234584 0.458901 -5.454087 -0.115954 -0.063754 1.899946 0.000000 -0.000000 0.000000 -5.733684 -6.101254 6.083726 19.141846 -5.113000 -0.215408 -10.237247 0.214452 -4.554964 1.487175 0.000001 0.000000 -0.000000 0.000001 -0.000000 
1.435600 94.009300 55.419918 -4.836230 -7.864471 -2.170143 1.768308 -0.507564 1.192605 3.528662 -0.966604 0.991286 3.528662 -0.966604 0.991286 18.841306 -1.196621 0.445378 9.774267 12.207712 1.727091 0.000003 -0.000000 -0.000000 2.646309 -21.940765 2.774211 4.222236 -16.472208 -17.890647 81.224862 -53.072759 79.176393 -8.062983 -10.910285 -3.124103 18.906609 -10.775073 10.592998 -11.046222 9.733295 -5.539207 -11.272840 -17.966399 -7.048686 0.000000 0.000001 0.000000 0.323034 2.169559 20.354819 0.656981 3.305419 -28.635775 0.461404 1.867736 -21.286775 0.000003 0.000001 0.000001 0.749079 5.050680 22.282051 4.200436 5.941961 -79.090804 2.739720 4.967220 -56.790168 -0.000003 -0.000001 -0.000002 2.990629 19.480960 -17.613477 5.103469 5.197537 -86.664473 2.591875 4.266453 -57.448557 -0.000002 -0.000000 0.000000 2.466096 18.958720 15.754173 0.155276 2.215071 -25.658582 0.203408 1.812080 -10.735941 -0.000000 0.000000 -0.000003 0.867656 15.667974 7.088642 5.606503 51.817708 9.583864 51.205778 48.668195 -46.182474 -6.351795 6.294648 -2.309725 18.905084 10.772243 -10.597009 -11.046331 -9.733289 5.539046 -11.572898 18.831088 7.838324 -0.000001 -0.000001 0.000001 0.652942 -1.720185 -26.368504 3.542485 -5.731338 71.103294 1.261381 -3.583284 50.785458 -0.000003 -0.000001 -0.000001 0.497176 -8.030831 9.255905 3.454874 -5.748526 70.635378 -1.963778 -1.909079 53.637875 -0.000000 0.000001 -0.000000 2.582119 -18.377608 8.543547 0.888858 -2.694252 26.220113 -1.592495 5.164810 15.097582 -0.000001 0.000000 0.000001 2.464045 -18.957989 -15.761672 0.155368 -2.215441 25.658553 -0.960526 4.410384 2.836414 -0.000001 -0.000002 -0.000000 -10.293530 7.200802 4.215899 24.263361 11.098550 0.562973 -8.225852 0.480988 -5.489208 -0.098015 -0.064163 1.919890 0.000000 0.000001 0.000000 -5.868910 -6.080009 6.024703 19.114938 -4.896363 -0.212065 -10.126427 0.238539 -4.607351 1.500375 -0.000005 0.000000 0.000000 0.000001 -0.000000 
1.509637 94.036301 55.389969 -4.789677 -8.346700 -2.171493 1.794160 -0.459564 1.201227 3.581322 -0.870948 1.020948 3.581322 -0.870949 1.020948 18.713094 -1.110172 0.484212 9.706833 11.761305 1.199688 0.000000 0.000000 -0.000000 2.555736 -21.756075 2.354654 3.562377 -16.182552 -18.561722 81.682540 -51.452488 79.515949 -8.720923 -11.721299 -5.259656 18.906604 -10.775073 10.593001 -11.046226 9.733286 -5.539211 -11.272839 -17.966405 -7.048683 0.000001 -0.000001 0.000002 0.192716 2.515289 16.237052 0.258723 2.370182 -17.446933 0.234071 1.072699 -12.729243 0.000001 -0.000000 -0.000002 0.992967 4.534642 28.255630 3.916062 5.880196 -75.884556 2.490915 4.804896 -53.944192 0.000004 0.000001 0.000000 3.078414 19.631016 -18.703459 6.267955 5.098391 -101.029809 3.244866 4.621726 -65.487519 0.000001 -0.000003 0.000000 2.466092 18.958722 15.754204 0.155278 2.215063 -25.658543 0.203406 1.812086 -10.735947 -0.000003 0.000000 -0.000002 0.898429 15.934254 6.869877 6.396270 52.281106 8.196250 49.112950 49.570812 -44.172302 -6.419949 4.835237 -2.011185 18.905079 10.772233 -10.597000 -11.046326 -9.733297 5.539043 -11.572900 18.831096 7.838329 -0.000000 0.000003 0.000000 0.571409 -1.731683 -25.949627 1.901407 -4.813887 50.279611 0.585811 -2.546635 38.879325 0.000003 -0.000000 -0.000000 0.412576 -6.436115 -7.458711 4.119708 -5.928410 78.196507 -1.618384 -2.869866 59.737579 -0.000000 0.000000 0.000000 2.774492 -19.010505 13.782599 2.726825 -4.515671 56.690147 -3.006614 2.725197 37.082384 0.000001 0.000000 -0.000000 2.464038 -18.958006 -15.761671 0.155359 -2.215422 25.658558 -0.960527 4.410368 2.836413 -0.000001 0.000000 0.000001 -10.236410 7.415939 4.233490 24.202120 11.332638 0.574560 -8.257959 0.522025 -5.558758 -0.091034 -0.065332 1.952117 -0.000000 -0.000000 -0.000000 -6.022726 -6.068073 6.027942 19.067523 -4.496883 -0.206055 -9.947441 0.283598 -4.725424 1.515084 -0.000011 -0.000001 0.000000 -0.000000 0.000000 
1.581358 94.063202 55.363487 -4.742834 -8.880204 -2.204497 1.808157 -0.398063 1.218845 3.610430 -0.747585 1.063337 3.610432 -0.747586 1.063336 18.675528 -1.071970 0.641957 9.711860 11.137370 0.697054 -0.000001 -0.000000 0.000000 2.465837 -21.460202 1.998400 2.339161 -15.636045 -19.552603 82.104454 -50.961582 79.985627 -9.611242 -12.566930 -8.079574 18.906602 -10.775062 10.592998 -11.046228 9.733283 -5.539207 -11.272838 -17.966387 -7.048682 -0.000001 0.000000 -0.000001 0.165063 2.771446 13.359914 0.225980 2.262010 -16.205616 0.142384 0.644624 -8.342614 -0.000000 -0.000000 0.000000 0.868853 4.889388 24.667022 3.120603 5.616150 -66.656786 1.848040 4.318774 -46.018010 -0.000001 -0.000000 0.000002 2.996031 19.437479 -16.647500 6.158050 5.126500 -99.714519 2.827250 4.413934 -60.170394 0.000001 0.000000 0.000002 2.466092 18.958725 15.754207 0.155269 2.215073 -25.658546 0.203410 1.812082 -10.735936 -0.000002 0.000002 0.000001 0.956881 16.249860 6.424265 7.672575 53.170974 6.166896 45.763610 50.333744 -40.820052 -6.416600 2.852358 -2.059976 18.905079 10.772255 -10.597008 -11.046326 -9.733290 5.539046 -11.572899 18.831113 7.838328 -0.000000 -0.000003 -0.000001 0.258977 -2.318238 -18.550042 0.440824 -2.861479 23.201833 0.030683 -0.885970 21.081724 0.000001 0.000002 0.000003 0.872713 -4.762026 -25.539223 4.127248 -5.928217 78.259385 -1.647740 -2.773644 59.556477 0.000003 0.000001 -0.000000 3.038261 -19.571137 18.312965 5.694368 -5.182200 93.878109 -3.082820 -1.384198 61.337189 0.000002 -0.000000 -0.000000 2.464043 -18.957993 -15.761671 0.155364 -2.215448 25.658560 -0.960522 4.410390 2.836416 0.000000 -0.000001 -0.000001 -10.180745 7.560871 4.286693 24.172383 11.674542 0.586949 -8.289850 0.569352 -5.641165 -0.099305 -0.067340 1.993368 -0.000000 0.000000 0.000000 -6.166954 -6.075315 6.074364 18.993843 -4.046897 -0.199812 -9.742449 0.335706 -4.866986 1.530199 -0.000000 0.000001 0.000000 0.000001 -0.000000 
